<svg xmlns="http://www.w3.org/2000/svg" width="224.88" viewBox="0 0 224.88 225" height="225" version="1.0"><defs><clipPath id="a"><path d="M 112 0.0585938 L 224.761719 0.0585938 L 224.761719 224.9375 L 112 224.9375 Z M 112 0.0585938"/></clipPath><clipPath id="b"><path d="M 0 37 L 188 37 L 188 224.9375 L 0 224.9375 Z M 0 37"/></clipPath></defs><g clip-path="url(#a)"><path fill="#1282A2" d="M 196.769531 0.0585938 L 140.550781 0.0585938 C 125.023438 0.0585938 112.441406 12.652344 112.441406 28.171875 L 112.441406 56.28125 C 112.441406 80.746094 128.089844 101.511719 149.917969 109.234375 L 149.917969 140.609375 L 168.660156 149.980469 L 168.660156 168.71875 L 149.917969 168.71875 L 149.917969 187.460938 L 168.660156 187.460938 L 168.660156 206.199219 L 149.917969 206.199219 L 149.917969 224.941406 L 187.402344 224.941406 L 187.402344 109.234375 C 209.21875 101.5 224.878906 80.746094 224.878906 56.28125 L 224.878906 28.171875 C 224.878906 12.644531 212.289062 0.0585938 196.769531 0.0585938 Z M 206.140625 56.28125 C 206.140625 76.945312 189.328125 93.757812 168.660156 93.757812 C 147.988281 93.757812 131.179688 76.945312 131.179688 56.28125 L 131.179688 28.171875 C 131.179688 23 135.378906 18.800781 140.550781 18.800781 L 196.769531 18.800781 C 201.9375 18.800781 206.140625 23.007812 206.140625 28.171875 Z M 206.140625 56.28125"/></g><g clip-path="url(#b)"><path fill="#F39237" d="M 178.027344 37.539062 L 84.328125 37.539062 C 63.632812 37.539062 46.847656 54.328125 46.847656 75.019531 L 46.847656 84.390625 L 37.480469 84.390625 C 16.785156 84.390625 0 101.183594 0 121.867188 L 0 187.460938 C 0 208.144531 16.785156 224.941406 37.480469 224.941406 L 74.957031 224.941406 C 95.65625 224.941406 112.441406 208.144531 112.441406 187.460938 L 112.441406 121.867188 C 112.441406 101.183594 95.65625 84.390625 74.957031 84.390625 L 65.59375 84.390625 L 65.59375 75.019531 C 65.59375 64.667969 73.980469 56.28125 84.328125 56.28125 L 178.027344 56.28125 C 183.179688 56.28125 187.402344 52.0625 187.402344 46.910156 C 187.402344 41.753906 183.179688 37.539062 178.027344 37.539062 Z M 74.957031 103.132812 C 85.296875 103.132812 93.703125 111.527344 93.703125 121.867188 L 93.703125 187.460938 C 93.703125 197.792969 85.296875 206.199219 74.957031 206.199219 L 37.480469 206.199219 C 27.144531 206.199219 18.738281 197.792969 18.738281 187.460938 L 18.738281 121.867188 C 18.738281 111.527344 27.144531 103.132812 37.480469 103.132812 L 46.847656 103.132812 L 46.847656 131.242188 C 46.847656 136.417969 51.042969 140.609375 56.21875 140.609375 C 61.398438 140.609375 65.59375 136.417969 65.59375 131.242188 L 65.59375 103.132812 Z M 74.957031 103.132812"/></g></svg>